<?xml version="1.0" ?><svg height="60px" version="1.1" viewBox="0 0 60 60" width="60px" xmlns="http://www.w3.org/2000/svg" xmlns:xlink="http://www.w3.org/1999/xlink"><title/><desc/><defs/><g fill="none" fill-rule="evenodd" id="Page-1" stroke="none" stroke-width="1"><g fill-rule="nonzero" id="014---Volume"><g id="Icons" transform="translate(1.000000, 1.000000)"><path d="M58,29.005 C57.9846946,36.6805529 54.920601,44.0355874 49.4819139,49.4517695 C44.0432269,54.8679516 36.6755503,57.9015214 29,57.885 C28.33,57.885 27.66,57.865 27,57.805 C11.8148168,56.8242902 9.32587341e-15,44.221819 7.54951657e-15,29.005 C5.77315973e-15,13.788181 11.8148168,1.18570975 27,0.205 C27.66,0.145 28.33,0.125 29,0.125 C36.6755511,0.108475955 44.0432292,3.14204484 49.4819168,8.55822756 C54.9206045,13.9744103 57.9846973,21.3294463 58,29.005 Z" fill="#FC7308" id="Shape"/><ellipse cx="27" cy="29.005" fill="#FFA800" id="Oval" rx="27" ry="28.79999"/><path d="M55,29.005 C54.9517585,43.3249643 43.3200343,54.9030037 29,54.885 C28.16,54.885 27.33,54.845 26.5,54.765 C13.1870891,53.5408138 3.00007599,42.3740773 3.00007599,29.005 C3.00007599,15.6359227 13.1870891,4.46918623 26.5,3.245 C27.33,3.165 28.16,3.125 29,3.125 C43.3200433,3.10697426 54.9517805,14.6850265 55,29.005 Z" fill="#FFA800" id="Shape"/><ellipse cx="26.5" cy="29.005" fill="#FEDD0A" id="Oval" rx="23.5" ry="25.76001"/><path d="M16,25 L20,25 L20,33 L16,33 C14.8954305,33 14,32.1045695 14,31 L14,27 C14,25.8954305 14.8954305,25 16,25 Z" fill="#1CD759" id="Shape"/><path d="M33,19.06 L33,38.94 C33.003295,39.6555954 32.6217085,40.3177352 32.0009011,40.6736647 C31.3800937,41.0295943 30.6158882,41.0243753 30,40.66 C29.9222913,40.6205936 29.8486095,40.5737051 29.78,40.52 L20,33 L20,25 L29.78,17.48 C30.3823076,17.0119646 31.1987309,16.9282197 31.8835139,17.2642312 C32.5682969,17.6002427 33.0016315,18.2972229 33,19.06 Z" fill="#15A143" id="Shape"/><path d="M30,25.03 L30,40.66 C29.9222913,40.6205936 29.8486095,40.5737051 29.78,40.52 L20,33 L20,28.66 L26.78,23.45 C27.3828279,22.984165 28.1980903,22.9016511 28.8820326,23.2372501 C29.5659748,23.5728491 29.9995727,24.2681578 30,25.03 Z" fill="#1CD759" id="Shape"/></g><g fill="#FFFFFF" id="Layer_13" transform="translate(2.000000, 1.000000)"><path d="M30.45,57.87 C19.7910404,58.3836418 9.71612985,52.98292 4.24340019,43.8217804 C-1.22932948,34.6606408 -1.20953185,23.2294893 4.29489728,14.0873611 C9.7993264,4.94523284 19.8928835,-0.420559164 30.55,0.13 C15.145871,0.847513201 3.01788694,13.53155 2.99117961,28.9523574 C2.96447229,44.3731649 15.0484487,57.0991344 30.45,57.87 Z" id="Shape"/></g><g id="Outline"><path d="M16.0625,5.85953 C6.29895569,11.5307039 0.867414662,22.4858296 2.26407,33.69022 C4.13260345,47.7767994 16.2972457,58.20376 30.50388,57.89606 C37.3608635,57.71074 43.9194278,55.0515539 48.9693,50.40921 C56.6726139,43.3491532 59.7637298,32.5642258 56.9697725,22.4954995 C54.1758152,12.4267731 45.9692316,4.77682917 35.72937,2.6958 C29.0071003,1.32575607 22.015962,2.45039227 16.0625,5.85953 L15.0625,4.12753 C21.4401458,0.474031721 28.9302022,-0.731358155 36.13208,0.73676 C47.0891845,2.99278422 55.8621628,11.1911964 58.8540771,21.9706321 C61.8459914,32.7500677 58.5535731,44.2973225 50.32672,51.878 C44.9178338,56.8519544 37.8913296,59.6999282 30.54572,59.89561 C19.3492439,60.1674346 8.94642544,54.1363555 3.61904865,44.2847555 C-1.70832814,34.4331555 -1.05991972,22.4259862 5.29739,13.20538 C7.83730046,9.4912785 11.1732441,6.39010546 15.0625,4.1275 L16.0625,5.85953 Z" fill="#FFFFFF" id="Shape"/><path d="M36.13208,0.73676 C28.930206,-0.731377442 21.4401462,0.474002318 15.0625,4.1275 L13.32526,5.24908 L12.45941,5.8139 L11.65082,6.45898 C11.4374223,6.62178765 11.2991005,6.86411571 11.2674268,7.13065215 C11.2357531,7.39718859 11.3134309,7.66518483 11.48273,7.87347 C11.8280784,8.29304826 12.4426698,8.3660806 12.87673,8.03912 L13.63027,7.4353 L14.44045,6.9093 L16.06245,5.8595 C22.0159354,2.45037612 29.0070876,1.3257512 35.72937,2.6958 C45.9520337,4.80080655 54.1367306,12.4500995 56.9274694,22.5072205 C59.7182081,32.5643416 56.6455173,43.3374339 48.9693,50.40918 C43.9194306,55.0515134 37.3608835,57.7107075 30.50391,57.89606 C20.0565751,58.1522179 10.3488086,52.5255282 5.37803968,43.3329289 C0.407270798,34.1403297 1.01401525,22.9362131 6.94843,14.33417 L7.49304,13.53705 C7.79797623,13.0954068 7.7130479,12.4936836 7.29779,12.15369 C7.08711957,11.9833133 6.8152333,11.9079188 6.5469046,11.9454682 C6.2785759,11.9830175 6.03782945,12.1301489 5.88202,12.35181 L5.29742,13.20538 C-1.03696802,22.4302124 -1.67328076,34.4250218 3.6495651,44.268259 C8.97241095,54.1114961 19.3582561,60.1459444 30.54572,59.89563 C37.8913336,59.69994 44.9178382,56.8519553 50.32672,51.87799 C58.5806943,44.3090149 61.8915517,32.749919 58.8964148,21.9588751 C55.9012779,11.1678311 47.1063945,2.96877631 36.13208,0.73676 Z" fill="#000000" id="Shape"/><path d="M9.2923,10.88452 C9.55342562,10.8810389 9.80397872,10.7808255 9.99548,10.60327 C10.1759952,10.4198835 10.2789839,10.1740427 10.28308,9.91675 L10.26257,9.72711 C10.2503725,9.66080525 10.2296751,9.59635034 10.20099,9.53534 C10.1819658,9.47453824 10.1541226,9.41685714 10.11835,9.36414 C10.080713,9.30865054 10.0393371,9.25579134 9.99451,9.20593 C9.80895582,9.01620626 9.55651128,8.90664768 9.2912,8.9007 C8.73332269,8.91936219 8.2821242,9.36110311 8.25165,9.91846 C8.25921258,10.0521909 8.29387043,10.1829905 8.35352,10.30292 C8.40833633,10.4229463 8.48620497,10.5310308 8.5827,10.62103 C8.77861567,10.7934136 9.03135648,10.8872617 9.2923,10.88452 Z" fill="#000000" id="Shape"/><path d="M30,55.875 C44.2741376,55.8062083 55.7963276,44.1910968 55.7504665,29.9168671 C55.7046053,15.6426374 44.1080185,4.1018034 29.8337335,4.12473387 C15.5594486,4.14766433 4.00000027,15.7256966 4,30 C4.05076111,44.3181062 15.6818155,55.893242 30,55.875 Z M30,6.125 C43.1695757,6.19376862 53.796362,16.9134441 53.7505153,30.0831195 C53.7046686,43.2527949 43.0035054,53.898223 29.8337702,53.8752983 C16.6640349,53.8523737 5.99999752,43.1697552 6,30 C6.04967695,16.7860145 16.7859352,6.10567421 30,6.125 Z" fill="#000000" id="Shape"/><path d="M17,35 L20.65991,35 L30.17091,42.31592 C31.076687,43.0129387 32.2998472,43.1346753 33.3252383,42.6298585 C34.3506295,42.1250416 35.0000552,41.0814004 35,39.93848 L35,20.06148 C35.0000581,18.9185559 34.350631,17.8749104 33.3252361,17.3700927 C32.2998413,16.8652751 31.0766769,16.9870152 30.1709,17.68404 L20.65991,25 L17,25 C15.3438951,25.0018077 14.0018077,26.3438951 14,28 L14,32 C14.0018077,33.6561049 15.3438951,34.9981923 17,35 Z M31.39063,19.269 C31.6925391,19.0367541 32.1001861,18.9962379 32.4419032,19.1645135 C32.7836203,19.332789 33.0000307,19.6806168 33,20.06152 L33,39.93852 C33.0000155,40.319416 32.7835993,40.6672298 32.4418853,40.8354954 C32.1001712,41.0037609 31.6925334,40.9632415 31.39063,40.731 L22,33.50781 L22,26.49219 L31.39063,19.269 Z M16,28 C16.0007162,27.4480122 16.4480122,27.0007162 17,27 L20,27 L20,33 L17,33 C16.4480122,32.9992838 16.0007162,32.5519878 16,32 L16,28 Z" fill="#000000" id="Shape"/><path d="M38,40 C42.9705627,40 47,35.9705627 47,31 C47,26.0294373 42.9705627,22 38,22 C37.4477153,22 37,22.4477153 37,23 C37,23.5522847 37.4477153,24 38,24 C41.8659932,24.0000001 44.9999999,27.1340068 44.9999999,31 C44.9999999,34.8659932 41.8659932,37.9999999 38,38 C37.4477153,38 37,38.4477153 37,39 C37,39.5522847 37.4477153,40 38,40 Z" fill="#000000" id="Shape"/><path d="M38,34 C37.4477153,34 37,34.4477153 37,35 C37,35.5522847 37.4477153,36 38,36 C40.7614237,36 43,33.7614237 43,31 C43,28.2385763 40.7614237,26 38,26 C37.4477153,26 37,26.4477153 37,27 C37,27.5522847 37.4477153,28 38,28 C39.6568542,28 41,29.3431458 41,31 C41,32.6568542 39.6568542,34 38,34 Z" fill="#000000" id="Shape"/></g></g></g></svg>